<svg xmlns="http://www.w3.org/2000/svg" viewBox="0 0 200 200" width="200" height="200">
  <defs>
    <linearGradient id="leafGradient" x1="0%" y1="0%" x2="0%" y2="100%">
      <stop offset="0%" style="stop-color:#a8d88e;stop-opacity:1" />
      <stop offset="100%" style="stop-color:#6fbd43;stop-opacity:1" />
    </linearGradient>
    <linearGradient id="techGradient" x1="0%" y1="0%" x2="100%" y2="0%">
      <stop offset="0%" style="stop-color:#1e3a5f;stop-opacity:1" />
      <stop offset="100%" style="stop-color:#2c5282;stop-opacity:1" />
    </linearGradient>
  </defs>
  
  <!-- Leaf shape -->
  <path d="M 80 150 Q 60 100 70 50 Q 75 20 90 20 Q 105 20 110 50 Q 120 100 100 150 Q 90 170 80 150 Z" 
        fill="url(#leafGradient)" stroke="none"/>
  
  <!-- Leaf veins -->
  <line x1="90" y1="30" x2="90" y2="140" stroke="#fff" stroke-width="3" opacity="0.6"/>
  <line x1="90" y1="50" x2="75" y2="60" stroke="#fff" stroke-width="2" opacity="0.5"/>
  <line x1="90" y1="70" x2="75" y2="80" stroke="#fff" stroke-width="2" opacity="0.5"/>
  <line x1="90" y1="90" x2="75" y2="100" stroke="#fff" stroke-width="2" opacity="0.5"/>
  <line x1="90" y1="110" x2="75" y2="120" stroke="#fff" stroke-width="2" opacity="0.5"/>
  
  <!-- Digital network lines -->
  <path d="M 120 60 L 140 50" stroke="url(#techGradient)" stroke-width="3" fill="none"/>
  <path d="M 120 80 L 150 70" stroke="url(#techGradient)" stroke-width="3" fill="none"/>
  <path d="M 120 100 L 160 95" stroke="url(#techGradient)" stroke-width="3" fill="none"/>
  <path d="M 120 120 L 155 120" stroke="url(#techGradient)" stroke-width="3" fill="none"/>
  
  <!-- Network nodes -->
  <circle cx="140" cy="50" r="5" fill="#1e3a5f"/>
  <circle cx="150" cy="70" r="5" fill="#1e3a5f"/>
  <circle cx="160" cy="95" r="5" fill="#1e3a5f"/>
  <circle cx="155" cy="120" r="5" fill="#1e3a5f"/>
  
  <!-- Sun/light icon -->
  <circle cx="135" cy="85" r="8" fill="#f4a300"/>
  <line x1="135" y1="75" x2="135" y2="72" stroke="#f4a300" stroke-width="2"/>
  <line x1="135" y1="95" x2="135" y2="98" stroke="#f4a300" stroke-width="2"/>
  <line x1="125" y1="85" x2="122" y2="85" stroke="#f4a300" stroke-width="2"/>
  <line x1="145" y1="85" x2="148" y2="85" stroke="#f4a300" stroke-width="2"/>
  <line x1="128" y1="78" x2="126" y2="76" stroke="#f4a300" stroke-width="2"/>
  <line x1="142" y1="92" x2="144" y2="94" stroke="#f4a300" stroke-width="2"/>
  <line x1="128" y1="92" x2="126" y2="94" stroke="#f4a300" stroke-width="2"/>
  <line x1="142" y1="78" x2="144" y2="76" stroke="#f4a300" stroke-width="2"/>
  
  <!-- Link/chain element -->
  <path d="M 110 140 Q 115 145 120 140 Q 125 135 130 140 Q 140 150 145 145 Q 150 140 155 145" 
        stroke="#1e3a5f" stroke-width="6" fill="none" stroke-linecap="round"/>
  <path d="M 105 150 Q 110 155 115 150 Q 120 145 125 150 Q 135 160 140 155 Q 145 150 150 155" 
        stroke="#1e3a5f" stroke-width="6" fill="none" stroke-linecap="round"/>
</svg>
